#!OML:ASF X:\für Bonn\!DataBase\2005_08_10_Bjorn_Final\c3d\bjorn.ASF
:FULLY-SPECIFIED
:DEGREES
263
root -0.548648 2.56908 20.2135 -423.712 -169.217 -3.98431
lowerback 49.9454 8.819 9.19963
upperback 27.261 0.573714 1.21515
thorax 10.8859 -5.07383 -4.26525
lowerneck 8.71849 7.97782 6.68248
upperneck -7.00406 10.9042 -7.54168
head -2.69871 5.59371 -3.80042
rclavicle 9.54166e-015 -1.59028e-014
rhumerus -235.722 -174.028 87.6186
rradius 50.829
rwrist -64.1624
rhand -19.3593 -17.918
rfingers 7.12502
rthumb 6.95829 -47.7837
lclavicle 9.54166e-015 -1.59028e-014
lhumerus -407.301 -31.5338 -283.172
lradius 33.4156
lwrist 30.3769
lhand -22.6208 1.01398
lfingers 7.12502
lthumb 3.80931 30.9597
rfemur -269.234 -139.292 194.034
rtibia 124.024
rfoot 23.2648 9.03956
rtoes -11.3867
lfemur -92.0798 48.5476 -21.7044
ltibia 154.288
lfoot 7.7029 -32.9742
ltoes 2.83649
264
root -0.571874 2.50736 20.1921 -423.755 -169.273 -3.86582
lowerback 49.8502 8.74022 9.18784
upperback 27.3418 0.399351 1.27533
thorax 10.9885 -5.19432 -4.16674
lowerneck 8.78087 8.19171 6.44305
upperneck -6.96842 11.1633 -7.59023
head -2.68953 5.7325 -3.78641
rclavicle -3.598e-014 3.65764e-014
rhumerus -236.186 -174.766 87.6524
rradius 51.8914
rwrist -64.5924
rhand -19.6016 -18.2418
rfingers 7.12502
rthumb 6.72447 -48.115
lclavicle -3.598e-014 3.65764e-014
lhumerus -408.49 -32.3121 -282.347
lradius 34.2846
lwrist 31.8898
lhand -23.0221 1.18486
lfingers 7.12502
lthumb 3.42173 31.1371
rfemur -269.935 -138.907 194.334
rtibia 124.267
rfoot 23.542 8.93073
rtoes -11.6751
lfemur -93.4479 47.945 -22.6317
ltibia 154.619
lfoot 8.29049 -32.353
ltoes 2.38484
265
root -0.593959 2.45005 20.1714 -423.788 -169.343 -3.76188
lowerback 49.7244 8.67218 9.1357
upperback 27.4079 0.233139 1.33793
thorax 11.074 -5.31221 -4.04769
lowerneck 8.94432 8.39764 6.23337
upperneck -6.94187 11.4153 -7.69419
head -2.6953 5.87107 -3.79886
rclavicle 2.98177e-014 -5.40694e-014
rhumerus -236.681 -175.505 87.7019
rradius 52.9562
rwrist -65.0522
rhand -19.9384 -18.5263
rfingers 7.12502
rthumb 6.39928 -48.4097
lclavicle 2.98177e-014 -5.40694e-014
lhumerus -409.667 -32.8144 -281.614
lradius 35.1493
lwrist 33.1871
lhand -23.2703 1.31668
lfingers 7.12502
lthumb 3.18209 31.2727
rfemur -270.61 -138.567 194.627
rtibia 124.485
rfoot 23.8271 8.84522
rtoes -11.7694
lfemur -94.7516 47.3521 -23.4979
ltibia 154.932
lfoot 8.81708 -31.7843
ltoes 1.65283
266
root -0.614961 2.39509 20.1507 -423.814 -169.35 -3.66306
lowerback 49.5973 8.59015 9.06407
upperback 27.4538 0.0643027 1.37388
thorax 11.1325 -5.42207 -3.94393
lowerneck 9.22468 8.58714 6.10485
upperneck -6.95533 11.6567 -7.8218
head -2.72673 6.00507 -3.83821
rclavicle -3.4191e-014 6.59965e-014
rhumerus -237.24 -176.169 87.7416
rradius 54.0325
rwrist -65.4792
rhand -20.2788 -18.8138
rfingers 7.12502
rthumb 6.07067 -48.7068
lclavicle -3.4191e-014 6.59965e-014
lhumerus -410.823 -33.2205 -280.958
lradius 36.0027
lwrist 34.4077
lhand -23.4252 1.38158
lfingers 7.12502
lthumb 3.03244 31.3398
rfemur -271.272 -138.174 194.865
rtibia 124.699
rfoot 24.0987 8.82555
rtoes -11.6764
lfemur -95.9812 46.7268 -24.4126
ltibia 155.21
lfoot 9.37154 -31.1549
ltoes 1.09352
267
root -0.634959 2.34484 20.1314 -423.857 -169.4 -3.55962
lowerback 49.4726 8.51707 9.04092
upperback 27.4989 -0.0711038 1.43394
thorax 11.1974 -5.51097 -3.84522
lowerneck 9.48944 8.74135 6.02104
upperneck -6.94878 11.8526 -7.9798
head -2.74827 6.11669 -3.89092
rclavicle -1.64991e-014 1.98785e-015
rhumerus -237.823 -176.742 87.7943
rradius 55.1579
rwrist -65.8794
rhand -20.6588 -19.1509
rfingers 7.12502
rthumb 5.70374 -49.0541
lclavicle -1.64991e-014 1.98785e-015
lhumerus -411.874 -33.5027 -280.397
lradius 36.8356
lwrist 35.4194
lhand -23.4241 1.48281
lfingers 7.12502
lthumb 3.03355 31.441
rfemur -271.85 -137.808 195.116
rtibia 124.88
rfoot 24.3874 8.82465
rtoes -11.5456
lfemur -97.1064 46.1135 -25.1876
ltibia 155.47
lfoot 9.81976 -30.6082
ltoes 0.207933
268
root -0.654291 2.3004 20.1134 -423.864 -169.418 -3.45849
lowerback 49.292 8.42894 9.00754
upperback 27.5339 -0.205654 1.48114
thorax 11.2564 -5.58688 -3.75501
lowerneck 9.8295 8.89151 5.90247
upperneck -6.95652 12.0431 -8.09594
head -2.79123 6.22556 -3.9313
rclavicle 8.54774e-015 2.3059e-014
rhumerus -238.432 -177.265 87.834
rradius 56.2792
rwrist -66.3393
rhand -21.1127 -19.3936
rfingers 7.12502
rthumb 5.26553 -49.3082
lclavicle 8.54774e-015 2.3059e-014
lhumerus -412.948 -33.8028 -279.791
lradius 37.6511
lwrist 36.439
lhand -23.4804 1.55644
lfingers 7.12502
lthumb 2.97918 31.5154
rfemur -272.44 -137.433 195.354
rtibia 125.056
rfoot 24.6705 8.83343
rtoes -11.2723
lfemur -98.1513 45.4843 -25.9771
ltibia 155.687
lfoot 10.2989 -30.0265
ltoes -0.393981
269
root -0.671852 2.26277 20.0964 -423.898 -169.438 -3.34654
lowerback 49.057 8.35708 9.01108
upperback 27.6231 -0.329441 1.5444
thorax 11.3964 -5.65867 -3.67922
lowerneck 10.1334 9.01552 5.86619
upperneck -6.98532 12.2036 -8.24979
head -2.82933 6.31876 -3.99336
rclavicle -9.14409e-015 1.74931e-014
rhumerus -238.963 -177.673 87.8837
rradius 57.3753
rwrist -66.7591
rhand -21.5946 -19.6531
rfingers 7.12502
rthumb 4.80026 -49.5787
lclavicle -9.14409e-015 1.74931e-014
lhumerus -413.911 -34.1272 -279.241
lradius 38.464
lwrist 37.4347
lhand -23.5222 1.60086
lfingers 7.12502
lthumb 2.93882 31.5604
rfemur -272.904 -137.042 195.557
rtibia 125.194
rfoot 24.9291 8.86874
rtoes -10.9478
lfemur -99.013 44.8588 -26.5917
ltibia 155.884
lfoot 10.672 -29.5412
ltoes -1.11296
270
root -0.688507 2.23264 20.0812 -423.922 -169.439 -3.23164
lowerback 48.731 8.31073 8.98838
upperback 27.7643 -0.453687 1.63833
thorax 11.6145 -5.74019 -3.57044
lowerneck 10.4326 9.14689 5.81849
upperneck -7.02815 12.3708 -8.4054
head -2.87074 6.41575 -4.05512
rclavicle 5.1684e-015 -1.39149e-014
rhumerus -239.42 -178.048 87.9507
rradius 58.4579
rwrist -67.153
rhand -22.1214 -19.8995
rfingers 7.12502
rthumb 4.29156 -49.836
lclavicle 5.1684e-015 -1.39149e-014
lhumerus -414.741 -34.4174 -278.704
lradius 39.2128
lwrist 38.3189
lhand -23.5952 1.73507
lfingers 7.12502
lthumb 2.86832 31.6955
rfemur -273.313 -136.629 195.72
rtibia 125.319
rfoot 25.1592 8.92055
rtoes -10.6149
lfemur -99.7028 44.2353 -27.1545
ltibia 156.048
lfoot 10.8899 -29.0754
ltoes -2.05374
271
root -0.70489 2.20901 20.0693 -423.929 -169.464 -3.10506
lowerback 48.3718 8.25098 8.98065
upperback 27.9086 -0.588805 1.72727
thorax 11.8448 -5.82215 -3.47394
lowerneck 10.653 9.28983 5.75035
upperneck -6.94119 12.5535 -8.53006
head -2.86238 6.51831 -4.09559
rclavicle 3.06128e-014 -4.8901e-014
rhumerus -239.848 -178.426 88.0173
rradius 59.5332
rwrist -67.5603
rhand -22.6415 -20.1165
rfingers 7.12502
rthumb 3.78929 -50.0626
lclavicle 3.06128e-014 -4.8901e-014
lhumerus -415.544 -34.6602 -278.157
lradius 39.9339
lwrist 39.1803
lhand -23.6916 1.8207
lfingers 7.12502
lthumb 2.7752 31.7824
rfemur -273.665 -136.266 195.892
rtibia 125.415
rfoot 25.3473 9.0158
rtoes -10.4413
lfemur -100.311 43.6176 -27.6411
ltibia 156.191
lfoot 11.0185 -28.63
ltoes -3.12787
272
root -0.7198 2.19005 20.0591 -423.929 -169.516 -2.95809
lowerback 47.9483 8.18853 9.04564
upperback 28.086 -0.706017 1.81791
thorax 12.1374 -5.88129 -3.42318
lowerneck 10.7423 9.42391 5.71624
upperneck -6.73089 12.7347 -8.57933
head -2.7987 6.61331 -4.10599
rclavicle -4.57205e-015 5.96354e-015
rhumerus -240.216 -178.686 88.0538
rradius 60.5726
rwrist -67.9209
rhand -23.1747 -20.3411
rfingers 7.12502
rthumb 3.27439 -50.2957
lclavicle -4.57205e-015 5.96354e-015
lhumerus -416.311 -35.0086 -277.591
lradius 40.6465
lwrist 39.6983
lhand -24.0142 2.02484
lfingers 7.12502
lthumb 2.46367 31.9904
rfemur -273.95 -135.947 196.077
rtibia 125.484
rfoot 25.4472 9.03036
rtoes -10.3555
lfemur -100.845 43.005 -27.9724
ltibia 156.332
lfoot 11.2643 -28.2
ltoes -3.7788
273
root -0.733438 2.17633 20.0502 -423.924 -169.585 -2.8102
lowerback 47.4889 8.13667 9.09073
upperback 28.2601 -0.814237 1.91482
thorax 12.4339 -5.93618 -3.36033
lowerneck 10.8576 9.55679 5.73823
upperneck -6.48848 12.9187 -8.6942
head -2.72117 6.71185 -4.1438
rclavicle -9.93923e-015 -1.55052e-014
rhumerus -240.559 -178.96 88.1024
rradius 61.5791
rwrist -68.3552
rhand -23.7313 -20.5413
rfingers 7.12502
rthumb 2.73689 -50.5034
lclavicle -9.93923e-015 -1.55052e-014
lhumerus -417.076 -35.3657 -276.975
lradius 41.3036
lwrist 40.1122
lhand -24.3355 2.26116
lfingers 7.12502
lthumb 2.1533 32.23
rfemur -274.171 -135.673 196.236
rtibia 125.547
rfoot 25.5098 9.02268
rtoes -10.3169
lfemur -101.271 42.4144 -28.1914
ltibia 156.464
lfoot 11.2974 -27.8915
ltoes -4.87719
